# xmcd
#
# Track frame offsets: 
#        150
#        16978
#        34596
#        53276
#        75247
#        98366
#        115786
#        129646
#        147544
#        170295
#        181941
#        201103
#
# Disc length: 2901 seconds
#
# Revision: 0
# Processed by: cddbd v1.5.2PL0 Copyright (c) Steve Scherf et al.
# Submitted via: ExactAudioCopy v0.99pb5
#
DISCID=880b530c
DTITLE=Joss Stone - LP1 (DeLuxe Edition)
DYEAR=2011
DGENRE=Blues
TTITLE0=Newborn
TTITLE1=Karma
TTITLE2=Don't Start Lying to Me Now
TTITLE3=Last One to Know
TTITLE4=Drive All Night
TTITLE5=Cry Myself to Sleep
TTITLE6=Somehow
TTITLE7=Landlord
TTITLE8=Boat Yard
TTITLE9=Take Good Care
TTITLE10=Picnic for Two (feat. Dave Stewart) [bonus track]
TTITLE11=Cutting the Breeze [bonus track]
EXTD=
EXTT0=
EXTT1=
EXTT2=
EXTT3=
EXTT4=
EXTT5=
EXTT6=
EXTT7=
EXTT8=
EXTT9=
EXTT10=
EXTT11=
PLAYORDER=
